<?xml version="1.0" encoding="utf-8"?>
<!-- Generator: Adobe Illustrator 15.0.0, SVG Export Plug-In . SVG Version: 6.00 Build 0)  -->
<!DOCTYPE svg PUBLIC "-//W3C//DTD SVG 1.1//EN" "http://www.w3.org/Graphics/SVG/1.1/DTD/svg11.dtd">
<svg version="1.1" id="Layer_1" xmlns="http://www.w3.org/2000/svg" xmlns:xlink="http://www.w3.org/1999/xlink" x="0px" y="0px"
	 width="456.156px" height="456.156px" viewBox="155.922 155.922 456.156 456.156"
	 enable-background="new 155.922 155.922 456.156 456.156" xml:space="preserve">
<title></title>
<g id="icomoon-ignore">
</g>
<path d="M545.275,500.021L429.255,384L545.275,267.98c13.577-13.577,13.577-31.679,0-45.255c-13.576-13.577-31.678-13.577-45.255,0
	L384,338.745L267.979,222.725c-13.577-13.577-31.679-13.577-45.255,0c-13.576,13.576-13.577,31.678,0,45.254L338.745,384
	L222.725,500.021c-13.576,13.576-13.577,31.679,0,45.255c13.576,13.577,31.679,13.576,45.255,0L384,429.255l116.021,116.021
	c13.577,13.576,31.68,13.576,45.255,0C558.853,531.699,558.853,513.598,545.275,500.021z"/>
</svg>
