<?xml version="1.0" encoding="utf-8"?>
<!-- Generator: Adobe Illustrator 15.0.0, SVG Export Plug-In . SVG Version: 6.00 Build 0)  -->
<!DOCTYPE svg PUBLIC "-//W3C//DTD SVG 1.1//EN" "http://www.w3.org/Graphics/SVG/1.1/DTD/svg11.dtd">
<svg version="1.1" id="Layer_1" xmlns="http://www.w3.org/2000/svg" xmlns:xlink="http://www.w3.org/1999/xlink" x="0px" y="0px"
	 width="768px" height="768px" viewBox="0 0 768 768" enable-background="new 0 0 768 768" xml:space="preserve">
<title></title>
<g id="icomoon-ignore">
</g>
<path d="M384,0C171.054,0,0,171.055,0,384c0,212.944,171.055,384,384,384s384-171.056,384-384C768,171.055,596.945,0,384,0z
	 M384,691.182C213.344,691.182,76.818,554.657,76.818,384S213.344,76.818,384,76.818S691.182,213.344,691.182,384
	S554.657,691.182,384,691.182z"/>
<path d="M565.572,338.606H429.394V202.427c0-27.236-18.158-45.394-45.394-45.394c-27.236,0-45.394,18.158-45.394,45.394v136.178
	H202.427c-27.235,0-45.394,18.159-45.394,45.395c0,27.234,18.159,45.394,45.394,45.394h136.179v136.179
	c0,27.235,18.158,45.394,45.394,45.394c27.235,0,45.394-18.158,45.394-45.394V429.394h136.179c27.236,0,45.394-18.159,45.394-45.394
	C610.966,356.764,592.809,338.606,565.572,338.606z"/>
</svg>
