<?xml version="1.0" encoding="utf-8"?>
<!-- Generator: Adobe Illustrator 15.0.0, SVG Export Plug-In . SVG Version: 6.00 Build 0)  -->
<!DOCTYPE svg PUBLIC "-//W3C//DTD SVG 1.1//EN" "http://www.w3.org/Graphics/SVG/1.1/DTD/svg11.dtd">
<svg version="1.1" id="Layer_1" xmlns="http://www.w3.org/2000/svg" xmlns:xlink="http://www.w3.org/1999/xlink" x="0px" y="0px"
	 width="768px" height="768px" viewBox="0 0 768 768" enable-background="new 0 0 768 768" xml:space="preserve">
<title></title>
<g id="icomoon-ignore">
</g>
<path d="M192,672h-64c-19.2,0-32-12.801-32-32V352c0-19.2,12.8-32,32-32h64V672z M617.6,646.4c-3.2,16-16,25.601-32,25.601l0,0H256
	V358.4L371.2,99.2c25.6,9.6,44.8,32,44.8,60.8v128c0,19.199,12.8,32,32,32h182.399c3.2,0,3.2,0,6.4,0c9.6,0,16,6.399,22.4,12.8
	c6.399,6.399,6.399,16,6.399,22.399L617.6,646.4z"/>
</svg>
