<?xml version="1.0" encoding="utf-8"?>
<!-- Generator: Adobe Illustrator 15.0.0, SVG Export Plug-In . SVG Version: 6.00 Build 0)  -->
<!DOCTYPE svg PUBLIC "-//W3C//DTD SVG 1.1//EN" "http://www.w3.org/Graphics/SVG/1.1/DTD/svg11.dtd">
<svg version="1.1" id="laptop_user" xmlns="http://www.w3.org/2000/svg" xmlns:xlink="http://www.w3.org/1999/xlink" x="0px"
	 y="0px" width="512px" height="512px" viewBox="0 0 512 512" enable-background="new 0 0 512 512" xml:space="preserve">
<g>
	<g>
		<path d="M189.789,190.007c-52.468,0-95.009-42.531-95.009-95.003C94.78,42.532,137.322,0,189.789,0
			c52.47,0,95.005,42.532,95.005,95.004C284.794,147.476,242.259,190.007,189.789,190.007z"/>
	</g>
	<g>
		<path d="M193.954,511.255H0.077L0,280.972c0-50.484,40.926-91.41,91.411-91.41h11.147c50.484,0,91.412,40.925,91.412,91.41
			l-0.016,39.444H183.53l-54.442-77.348c-17.994-25.568-53.3-31.707-78.867-13.713c-25.564,17.991-31.702,53.304-13.71,78.865
			l71.35,115.389c10.603,15.06,27.871,24.023,46.289,24.023h39.804V511.255z"/>
	</g>
	<g>
		<path d="M354.543,391.028c0,21.214-17.192,38.411-38.407,38.411H154.15c-12.498,0-24.215-6.081-31.409-16.303L51.389,297.749
			c-12.208-17.348-8.043-41.307,9.302-53.517c17.351-12.212,41.309-8.042,53.517,9.306l59.876,99.081h142.05
			C337.351,352.62,354.543,369.818,354.543,391.028z"/>
	</g>
	<g>
		<path d="M391.914,512H215.269v-61.356h157.341L457.279,256l55.316,26.55l-93.023,212.047C414.465,505.233,403.713,512,391.914,512
			z"/>
	</g>
</g>
</svg>
